Coordinates
version=1
nRows=11
nColumns=40
inDegrees=yes

Units are S.I. units (second, meters, Newtons, ...)
Angles are in degrees.

endheader
time	pelvis_tilt	pelvis_list	pelvis_rotation	pelvis_tx	pelvis_ty	pelvis_tz	hip_flexion_r	hip_adduction_r	hip_rotation_r	knee_angle_r	knee_angle_r_beta	ankle_angle_r	subtalar_angle_r	mtp_angle_r	hip_flexion_l	hip_adduction_l	hip_rotation_l	knee_angle_l	knee_angle_l_beta	ankle_angle_l	subtalar_angle_l	mtp_angle_l	lumbar_extension	lumbar_bending	lumbar_rotation	arm_flex_r	arm_add_r	arm_rot_r	elbow_flex_r	pro_sup_r	wrist_flex_r	wrist_dev_r	arm_flex_l	arm_add_l	arm_rot_l	elbow_flex_l	pro_sup_l	wrist_flex_l	wrist_dev_l
     45.94000000	     -6.45449371	     -5.77082362	      1.02384631	      0.94017598	      0.92169584	      0.45396178	      8.60009330	     -4.63199431	     -9.97204223	     39.88595832	     39.88595832	      5.89577553	     -6.79504302	    -19.14587657	     22.06308864	     -4.99283797	     -1.84660213	     30.10503994	     30.10503994	     16.75625168	    -16.92002796	      9.43012451	    -10.10764024	      6.98054815	      3.75994720	     35.89253586	    -16.72399553	    -22.39172175	     28.94561676	     45.14246217	      0.00000000	      0.00000000	      2.37739074	    -15.64094301	     10.68472260	     38.97006930	     45.17563962	      0.00000000	      0.00000000
     45.95957143	     -6.25245814	     -5.63908033	      0.53862286	      0.93891724	      0.91980468	      0.45123224	     11.27025398	     -5.26570270	     -9.02883381	     45.03670095	     45.03670095	      4.28885123	     -9.17772154	    -18.98780865	     21.87382139	     -4.79449710	     -2.16756542	     31.01675852	     31.01675852	     17.53041884	    -17.23052323	      9.12969771	    -10.47919103	      7.10608674	      3.06954588	     33.18598987	    -15.82491306	    -22.35246779	     27.64814364	     45.18508028	      0.00000000	      0.00000000	      4.06667280	    -16.18359151	     10.47867910	     39.32591283	     45.23036762	      0.00000000	      0.00000000
     45.97914286	     -6.17001473	     -5.77810025	      0.05097104	      0.93760027	      0.91776464	      0.44891827	     13.97203885	     -5.12868324	     -7.59715129	     49.73654204	     49.73654204	      2.77907232	    -12.30889483	    -16.97838275	     21.87941024	     -4.90261159	     -2.36281027	     32.04261454	     32.04261454	     18.43704438	    -17.48387750	      9.18702679	    -10.66575137	      7.50070706	      3.03166611	     29.91312216	    -15.46920278	    -22.27152541	     26.12532520	     45.25205120	      0.00000000	      0.00000000	      6.17601924	    -16.52904634	     10.29319792	     39.74145503	     45.30352620	      0.00000000	      0.00000000
     45.99871429	     -5.98094841	     -5.71026358	     -0.44486169	      0.93635327	      0.91590515	      0.44662728	     16.55984279	     -5.30950961	     -6.55917737	     54.39092266	     54.39092266	      3.38018098	    -12.69339990	    -10.15993182	     21.69950463	     -4.78379027	     -2.63731795	     33.00199241	     33.00199241	     19.73201773	    -17.58628607	     10.22832252	    -11.00787586	      7.66479670	      3.15973280	     26.16079948	    -15.17225273	    -21.84457080	     25.55689515	     45.34618673	      0.00000000	      0.00000000	      8.86597020	    -16.83642676	     10.68931463	     39.19157493	     45.38876843	      0.00000000	      0.00000000
     46.01828571	     -5.80379805	     -5.62081375	     -0.92153788	      0.93522139	      0.91425241	      0.44463064	     18.76128511	     -5.37247702	     -5.66066354	     57.85144575	     57.85144575	      2.21140759	    -14.23404269	     -9.08316920	     21.37553363	     -4.65925141	     -2.97168109	     33.63806532	     33.63806532	     20.40961999	    -17.78159714	      9.95066748	    -11.30819833	      7.80987579	      2.68504287	     23.08141065	    -14.43661255	    -21.80548537	     24.32163388	     45.38536472	      0.00000000	      0.00000000	     10.66744958	    -17.51798065	     10.36519613	     39.99412791	     45.46130244	      0.00000000	      0.00000000
     46.03785714	     -5.54764215	     -5.68587319	     -1.39106857	      0.93421040	      0.91323692	      0.44316224	     20.85171778	     -5.12632767	     -4.91346944	     61.02213389	     61.02213389	      3.72969106	    -14.02250717	     -1.24442843	     20.90085675	     -4.73537515	     -3.29741654	     34.16106475	     34.16106475	     21.24085273	    -17.82736023	     10.26485661	    -11.73822284	      8.06785274	      3.09247842	     18.97683004	    -14.16340315	    -21.45262786	     24.15817246	     45.45362096	      0.00000000	      0.00000000	     13.14003732	    -17.82121616	     10.22657002	     40.74926832	     45.59345337	      0.00000000	      0.00000000
     46.05742857	     -5.43601016	     -5.65269597	     -1.86302356	      0.93322297	      0.91249626	      0.44204391	     22.70730051	     -4.92611661	     -4.36186206	     62.92674131	     62.92674131	      3.22901218	    -15.00150217	     -0.66733246	     20.40941280	     -4.70663586	     -3.65536633	     34.33205981	     34.33205981	     21.75468317	    -17.92123072	     10.08848135	    -11.92347615	      8.23364358	      2.65896369	     15.91888458	    -13.42625312	    -21.39988085	     22.91784187	     45.49235416	      0.00000000	      0.00000000	     14.95388404	    -18.51045102	      9.80599069	     41.68818473	     45.67516552	      0.00000000	      0.00000000
     46.07700000	     -5.26874533	     -5.74002488	     -2.36694270	      0.93244068	      0.91266558	      0.44148988	     24.25427842	     -4.52909333	     -4.04019886	     63.93667306	     63.93667306	      3.31925520	    -15.61139853	      0.48098991	     19.67812979	     -4.84976358	     -4.07800449	     34.19467904	     34.19467904	     22.11866729	    -17.94019609	     10.03038696	    -12.16877669	      8.49472967	      2.85068402	     12.46181467	    -12.98091464	    -21.35554397	     21.74397052	     45.53989834	      0.00000000	      0.00000000	     16.98448209	    -18.90482513	      9.17484746	     43.17526404	     45.79133696	      0.00000000	      0.00000000
     46.09657143	     -5.16518472	     -5.77305483	     -2.86840629	      0.93165311	      0.91345024	      0.44136676	     25.70117109	     -4.16911497	     -3.90062996	     64.14474159	     64.14474159	      3.79040057	    -15.91894659	      1.52723150	     18.82584663	     -4.93293013	     -4.50715264	     33.68418644	     33.68418644	     22.33387960	    -17.89657110	      9.97453766	    -12.35881659	      8.67331003	      2.76477476	      9.16770225	    -12.34854246	    -21.34368115	     21.01839009	     45.57911436	      0.00000000	      0.00000000	     18.81690963	    -19.37232535	      8.34506969	     44.73561018	     45.92708052	      0.00000000	      0.00000000
     46.11614286	     -5.14842452	     -5.83856889	     -3.44468199	      0.93096288	      0.91485396	      0.44177201	     26.99701063	     -3.72833934	     -3.91049893	     63.41493942	     63.41493942	      4.39499765	    -16.07291960	      2.04279233	     17.87833384	     -5.08755737	     -5.06061605	     32.83665269	     32.83665269	     22.33221287	    -17.83818205	      9.86723686	    -12.42976711	      8.86920630	      2.70590612	      5.92131566	    -11.75621387	    -21.35880536	     20.52987766	     45.62163922	      0.00000000	      0.00000000	     20.48050547	    -19.85842765	      7.21559725	     46.60309259	     46.09115641	      0.00000000	      0.00000000
     46.13571429	     -5.17407249	     -5.85514177	     -4.07786911	      0.93030937	      0.91689900	      0.44261229	     28.07846485	     -3.25982997	     -3.95449780	     61.73510097	     61.73510097	      4.97512083	    -16.13682818	      1.87354605	     16.74900122	     -5.18355834	     -5.67688814	     31.56542110	     31.56542110	     22.19163101	    -17.75143749	      9.90520720	    -12.44764483	      8.99612347	      2.59483005	      2.99538570	    -11.20723732	    -21.39330983	     19.83795618	     45.66165991	      0.00000000	      0.00000000	     22.10375457	    -20.41050969	      6.19108299	     48.37878257	     46.23177209	      0.00000000	      0.00000000
